{"title":"Das.letzte.Schweigen.2010.DVDRip.XViD.AC3-LuCiFeR","uid":6308640,"size":1407765639,"categoryP":"video","categoryS":"movies","magnet":"?xt=urn:btih:5b2f116e15f0a688f226cc02dd7cfd0b22ea833c&amp;dn=Das.letzte.Schweigen.2010.DVDRip.XViD.AC3-LuCiFeR&amp;tr=udp%3A%2F%2Ftracker.openbittorrent.com%3A80&amp;tr=udp%3A%2F%2Fopen.demonii.com%3A1337&amp;tr=udp%3A%2F%2Ftracker.coppersurfer.tk%3A6969&amp;tr=udp%3A%2F%2Fexodus.desync.com%3A6969","seeders":9,"leechers":0,"uploader":"HORRORTEAM-BG","files":-1,"time":1302448504,"description":"General\nComplete name                    : Das.letzte.Schweigen.2010.DVDRip.XViD.AC3-LuCiFeR.avi\nFormat                           : AVI\nFormat/Info                      : Audio Video Interleave\nFile size                        : 1.31 GiB\nDuration                         : 1h 54mn\nOverall bit rate                 : 1 643 Kbps\nWriting application              : VirtualDubMod 1.5.10.2 (build 2542/release)\nWriting library                  : VirtualDubMod build 2542/release\n\nVideo\nID                               : 0\nFormat                           : MPEG-4 Visual\nFormat profile                   : Advanced Simple@L5\nFormat settings, BVOP            : 2\nFormat settings, QPel            : Yes\nFormat settings, GMC             : 3 warppoints\nFormat settings, Matrix          : Default (MPEG)\nCodec ID                         : XVID\nCodec ID/Hint                    : XviD\nDuration                         : 1h 54mn\nBit rate                         : 1 185 Kbps\nWidth                            : 704 pixels\nHeight                           : 288 pixels\nDisplay aspect ratio             : 2.40:1\nFrame rate                       : 25.000 fps\nColor space                      : YUV\nChroma subsampling               : 4:2:0\nBit depth                        : 8 bits\nScan type                        : Progressive\nCompression mode                 : Lossy\nBits/(Pixel*Frame)               : 0.234\nStream size                      : 968 MiB (72%)\nWriting library                  : XviD 1.2.1 (UTC 2008-12-04)\n\nAudio\nID                               : 1\nFormat                           : AC-3\nFormat/Info                      : Audio Coding 3\nMode extension                   : CM (complete main)\nCodec ID                         : 2000\nDuration                         : 1h 54mn\nBit rate mode                    : Constant\nBit rate                         : 448 Kbps\nChannel(s)                       : 6 channels\nChannel positions                : Front: L C R, Side: L R, LFE\nSampling rate                    : 48.0 KHz\nBit depth                        : 16 bits\nCompression mode                 : Lossy\nStream size                      : 366 MiB (27%)\nAlignment                        : Split accross interleaves\nInterleave, duration             : 40 ms (1.00 video frame)\nInterleave, preload duration     : 500 ms\n\n\n13-year-old Sinikka vanishes on a hot summer night. Her bicycle is found in the exact place where a girl was killed 23 years ago. The dramatic present forces those involved in the original case to face their past. ","torrent":{"xt":"urn:btih:5b2f116e15f0a688f226cc02dd7cfd0b22ea833c","amp;dn":"Das.letzte.Schweigen.2010.DVDRip.XViD.AC3-LuCiFeR","amp;tr":["udp%3A%2F%2Ftracker.openbittorrent.com%3A80","udp%3A%2F%2Fopen.demonii.com%3A1337","udp%3A%2F%2Ftracker.coppersurfer.tk%3A6969","udp%3A%2F%2Fexodus.desync.com%3A6969"],"infoHash":"5b2f116e15f0a688f226cc02dd7cfd0b22ea833c","infoHashBuffer":{"type":"Buffer","data":[91,47,17,110,21,240,166,136,242,38,204,2,221,124,253,11,34,234,131,60]},"announce":[],"urlList":[]}}